<?xml version="1.0" encoding="UTF-8"?>
<svg xmlns="http://www.w3.org/2000/svg" xmlns:xlink="http://www.w3.org/1999/xlink" width="1080pt" height="198.154pt" viewBox="0 0 1080 198.154" version="1.2">
<g id="surface1">
<path style=" stroke:none;fill-rule:nonzero;fill:rgb(94.499207%,35.299683%,14.099121%);fill-opacity:1;" d="M 296.105469 94.730469 L 246.488281 94.019531 L 264.304688 140.519531 L 244.867188 168.503906 L 212.914062 104.585938 L 241.183594 63.882812 L 315.628906 66.621094 Z M 296.105469 94.730469 "/>
<path style=" stroke:none;fill-rule:nonzero;fill:rgb(94.499207%,35.299683%,14.099121%);fill-opacity:1;" d="M 294.558594 103.292969 L 344.179688 104.007812 L 326.363281 57.503906 L 345.796875 29.523438 L 375.84375 95.015625 L 347.578125 135.714844 L 275.035156 131.40625 Z M 294.558594 103.292969 "/>
<path style=" stroke:none;fill-rule:nonzero;fill:rgb(0%,12.199402%,23.498535%);fill-opacity:1;" d="M 477.09375 122.425781 C 474.425781 117.609375 473.089844 111.976562 473.089844 105.527344 C 473.089844 99.078125 474.40625 93.449219 477.035156 88.628906 C 478.238281 86.429688 479.667969 84.472656 481.3125 82.738281 L 481.3125 62.542969 L 463.933594 62.542969 L 463.933594 106.746094 L 434.871094 62.542969 L 417.496094 62.542969 L 417.496094 133.878906 L 434.871094 133.878906 L 434.871094 89.878906 L 463.933594 133.878906 L 481.3125 133.878906 L 481.3125 128.214844 C 479.699219 126.503906 478.285156 124.582031 477.09375 122.425781 "/>
<path style=" stroke:none;fill-rule:nonzero;fill:rgb(0%,12.199402%,23.498535%);fill-opacity:1;" d="M 513.457031 97.871094 C 512.8125 94.957031 511.308594 92.863281 508.945312 91.578125 C 506.582031 90.296875 503.910156 89.988281 500.933594 90.644531 C 498.089844 91.269531 495.875 92.628906 494.289062 94.710938 C 492.703125 96.796875 492.011719 99.414062 492.222656 102.558594 Z M 532.605469 103.527344 L 494.203125 112.003906 C 495.226562 115.386719 496.914062 117.773438 499.269531 119.160156 C 501.621094 120.550781 504.21875 120.929688 507.066406 120.300781 C 511.296875 119.367188 513.847656 116.929688 514.714844 112.992188 L 532.773438 109.003906 C 532.648438 112.847656 531.703125 116.492188 529.929688 119.933594 C 528.160156 123.378906 525.636719 126.332031 522.363281 128.785156 C 519.089844 131.242188 515.203125 132.96875 510.707031 133.960938 C 505.28125 135.160156 500.195312 135.070312 495.453125 133.6875 C 490.707031 132.308594 486.667969 129.730469 483.339844 125.957031 C 480.007812 122.179688 477.707031 117.414062 476.4375 111.664062 C 475.167969 105.90625 475.230469 100.621094 476.628906 95.800781 C 478.027344 90.984375 480.589844 86.949219 484.3125 83.699219 C 488.035156 80.449219 492.640625 78.21875 498.132812 77.007812 C 503.488281 75.824219 508.5 75.898438 513.164062 77.226562 C 517.828125 78.554688 521.792969 81.042969 525.0625 84.691406 C 528.332031 88.339844 530.578125 92.945312 531.808594 98.5 C 532.15625 100.089844 532.421875 101.761719 532.605469 103.527344 "/>
<path style=" stroke:none;fill-rule:nonzero;fill:rgb(0%,12.199402%,23.498535%);fill-opacity:1;" d="M 616.3125 77.175781 L 600.96875 133.878906 L 581.761719 133.878906 L 572.820312 97.09375 L 563.574219 133.878906 L 544.472656 133.878906 L 529.023438 77.175781 L 546.402344 77.175781 L 554.429688 117.722656 L 563.980469 77.175781 L 582.371094 77.175781 L 592.027344 117.519531 L 599.953125 77.175781 Z M 616.3125 77.175781 "/>
<path style=" stroke:none;fill-rule:nonzero;fill:rgb(0%,12.199402%,23.498535%);fill-opacity:1;" d="M 668.6875 62.542969 L 668.6875 76.464844 L 639.625 76.464844 L 639.625 91.503906 L 661.371094 91.503906 L 661.371094 105.019531 L 639.625 105.019531 L 639.625 133.878906 L 622.25 133.878906 L 622.25 62.542969 Z M 668.6875 62.542969 "/>
<path style=" stroke:none;fill-rule:nonzero;fill:rgb(0%,12.199402%,23.498535%);fill-opacity:1;" d="M 706.613281 97.871094 C 705.972656 94.957031 704.46875 92.863281 702.105469 91.582031 C 699.742188 90.296875 697.070312 89.988281 694.09375 90.644531 C 691.25 91.269531 689.03125 92.628906 687.445312 94.710938 C 685.859375 96.796875 685.171875 99.414062 685.378906 102.558594 Z M 725.761719 103.527344 L 687.363281 112.007812 C 688.386719 115.386719 690.074219 117.773438 692.429688 119.160156 C 694.78125 120.550781 697.378906 120.929688 700.226562 120.300781 C 704.457031 119.367188 707.007812 116.929688 707.871094 112.992188 L 725.929688 109.003906 C 725.808594 112.847656 724.859375 116.492188 723.089844 119.933594 C 721.316406 123.378906 718.792969 126.332031 715.523438 128.785156 C 712.25 131.242188 708.363281 132.96875 703.863281 133.960938 C 698.441406 135.160156 693.355469 135.070312 688.609375 133.6875 C 683.867188 132.308594 679.828125 129.730469 676.496094 125.957031 C 673.167969 122.179688 670.867188 117.414062 669.597656 111.664062 C 668.324219 105.90625 668.390625 100.621094 669.789062 95.800781 C 671.1875 90.984375 673.75 86.949219 677.46875 83.699219 C 681.191406 80.449219 685.796875 78.21875 691.289062 77.007812 C 696.648438 75.824219 701.660156 75.898438 706.324219 77.226562 C 710.988281 78.554688 714.953125 81.042969 718.222656 84.691406 C 721.492188 88.339844 723.738281 92.945312 724.964844 98.5 C 725.316406 100.089844 725.582031 101.761719 725.761719 103.527344 "/>
<path style=" stroke:none;fill-rule:nonzero;fill:rgb(0%,12.199402%,23.498535%);fill-opacity:1;" d="M 769.210938 97.871094 C 768.566406 94.957031 767.0625 92.863281 764.699219 91.582031 C 762.335938 90.296875 759.664062 89.988281 756.6875 90.644531 C 753.84375 91.269531 751.628906 92.628906 750.042969 94.710938 C 748.457031 96.796875 747.765625 99.414062 747.976562 102.558594 Z M 788.359375 103.527344 L 749.957031 112.007812 C 750.980469 115.386719 752.667969 117.773438 755.023438 119.160156 C 757.375 120.550781 759.972656 120.929688 762.820312 120.300781 C 767.050781 119.367188 769.601562 116.929688 770.46875 112.992188 L 788.527344 109.003906 C 788.402344 112.847656 787.457031 116.492188 785.683594 119.933594 C 783.914062 123.378906 781.390625 126.332031 778.117188 128.785156 C 774.84375 131.242188 770.957031 132.96875 766.460938 133.960938 C 761.035156 135.160156 755.949219 135.070312 751.207031 133.6875 C 746.460938 132.308594 742.421875 129.730469 739.09375 125.957031 C 735.761719 122.179688 733.460938 117.414062 732.191406 111.664062 C 730.921875 105.90625 730.984375 100.621094 732.382812 95.800781 C 733.78125 90.984375 736.34375 86.949219 740.066406 83.699219 C 743.789062 80.449219 748.394531 78.21875 753.886719 77.007812 C 759.242188 75.824219 764.253906 75.898438 768.917969 77.226562 C 773.582031 78.554688 777.546875 81.042969 780.816406 84.691406 C 784.085938 88.339844 786.332031 92.945312 787.5625 98.5 C 787.910156 100.089844 788.175781 101.761719 788.359375 103.527344 "/>
<path style=" stroke:none;fill-rule:nonzero;fill:rgb(0%,12.199402%,23.498535%);fill-opacity:1;" d="M 832.984375 95.265625 C 830.578125 92.757812 827.652344 91.503906 824.195312 91.503906 C 820.742188 91.503906 817.808594 92.742188 815.40625 95.214844 C 813 97.6875 811.796875 101.089844 811.796875 105.425781 C 811.796875 109.761719 813 113.199219 815.40625 115.738281 C 817.808594 118.28125 820.742188 119.550781 824.195312 119.550781 C 827.652344 119.550781 830.578125 118.296875 832.984375 115.789062 C 835.390625 113.285156 836.589844 109.863281 836.589844 105.527344 C 836.589844 101.191406 835.390625 97.773438 832.984375 95.265625 M 797.421875 90.082031 C 799.621094 85.679688 802.617188 82.292969 806.414062 79.921875 C 810.207031 77.550781 814.441406 76.363281 819.113281 76.363281 C 822.839844 76.363281 826.242188 77.144531 829.328125 78.699219 C 832.410156 80.261719 834.832031 82.359375 836.589844 85 L 836.589844 58.683594 L 853.96875 58.683594 L 853.96875 133.878906 L 836.589844 133.878906 L 836.589844 125.75 C 834.964844 128.457031 832.644531 130.628906 829.632812 132.253906 C 826.617188 133.878906 823.109375 134.691406 819.113281 134.691406 C 814.441406 134.691406 810.207031 133.488281 806.414062 131.085938 C 802.617188 128.679688 799.621094 125.257812 797.421875 120.820312 C 795.21875 116.386719 794.117188 111.253906 794.117188 105.425781 C 794.117188 99.601562 795.21875 94.488281 797.421875 90.082031 "/>
<path style=" stroke:none;fill-rule:nonzero;fill:rgb(0%,12.199402%,23.498535%);fill-opacity:1;" d="M 857.925781 124.609375 L 867.019531 124.609375 L 867.019531 126.828125 L 861.566406 126.828125 L 867.019531 128.863281 L 867.019531 130.648438 L 861.554688 132.695312 L 867.019531 132.695312 L 867.019531 134.914062 L 857.925781 134.914062 L 857.925781 132.292969 L 864.222656 129.742188 L 857.925781 127.214844 Z M 857.925781 124.609375 "/>
<path style=" stroke:none;fill-rule:nonzero;fill:rgb(0%,12.199402%,23.498535%);fill-opacity:1;" d="M 863.703125 117.925781 L 860.375 119.050781 L 863.703125 120.164062 Z M 865.414062 117.355469 L 865.414062 120.75 L 867.019531 121.292969 L 867.019531 123.613281 L 857.925781 120.320312 L 857.925781 117.757812 L 867.019531 114.464844 L 867.019531 116.808594 Z M 865.414062 117.355469 "/>
<path style=" stroke:none;fill-rule:nonzero;fill:rgb(0%,12.199402%,23.498535%);fill-opacity:1;" d="M 862.019531 111.25 L 862.019531 109.878906 C 862.019531 109.472656 861.921875 109.167969 861.722656 108.964844 C 861.523438 108.761719 861.242188 108.660156 860.878906 108.660156 C 860.535156 108.660156 860.261719 108.761719 860.0625 108.964844 C 859.863281 109.167969 859.765625 109.472656 859.765625 109.878906 L 859.765625 111.25 Z M 867.019531 108.828125 L 863.585938 110.71875 L 863.585938 111.25 L 867.019531 111.25 L 867.019531 113.46875 L 857.925781 113.46875 L 857.925781 109.746094 C 857.925781 109.03125 858.050781 108.417969 858.300781 107.914062 C 858.550781 107.410156 858.894531 107.03125 859.332031 106.78125 C 859.765625 106.53125 860.253906 106.402344 860.789062 106.402344 C 861.390625 106.402344 861.933594 106.574219 862.410156 106.914062 C 862.882812 107.257812 863.21875 107.761719 863.417969 108.425781 L 867.019531 106.328125 Z M 867.019531 108.828125 "/>
<path style=" stroke:none;fill-rule:nonzero;fill:rgb(0%,12.199402%,23.498535%);fill-opacity:1;" d="M 867.019531 99.746094 L 863.003906 102.800781 L 867.019531 102.800781 L 867.019531 105.019531 L 857.925781 105.019531 L 857.925781 102.800781 L 861.914062 102.800781 L 857.925781 99.769531 L 857.925781 97.164062 L 862.382812 100.691406 L 867.019531 97.035156 Z M 867.019531 99.746094 "/>
<path style=" stroke:none;fill-rule:nonzero;fill:rgb(0%,12.199402%,23.498535%);fill-opacity:1;" d="M 859.699219 93.769531 L 861.539062 93.769531 L 861.539062 90.804688 L 863.25 90.804688 L 863.25 93.769531 L 865.246094 93.769531 L 865.246094 90.414062 L 867.019531 90.414062 L 867.019531 95.988281 L 857.925781 95.988281 L 857.925781 90.414062 L 859.699219 90.414062 Z M 859.699219 93.769531 "/>
<path style=" stroke:none;fill-rule:nonzero;fill:rgb(0%,12.199402%,23.498535%);fill-opacity:1;" d="M 857.925781 82.433594 L 859.699219 82.433594 L 859.699219 84.84375 L 867.019531 84.84375 L 867.019531 87.058594 L 859.699219 87.058594 L 859.699219 89.46875 L 857.925781 89.46875 Z M 857.925781 82.433594 "/>
<path style=" stroke:none;fill-rule:nonzero;fill:rgb(0%,12.199402%,23.498535%);fill-opacity:1;" d="M 857.925781 79.101562 L 867.019531 79.101562 L 867.019531 81.320312 L 857.925781 81.320312 Z M 857.925781 79.101562 "/>
<path style=" stroke:none;fill-rule:nonzero;fill:rgb(0%,12.199402%,23.498535%);fill-opacity:1;" d="M 867.019531 69.359375 L 867.019531 71.574219 L 861.410156 75.28125 L 867.019531 75.28125 L 867.019531 77.496094 L 857.925781 77.496094 L 857.925781 75.28125 L 863.5625 71.574219 L 857.925781 71.574219 L 857.925781 69.359375 Z M 867.019531 69.359375 "/>
<path style=" stroke:none;fill-rule:nonzero;fill:rgb(0%,12.199402%,23.498535%);fill-opacity:1;" d="M 860.800781 61.714844 C 860.5 61.878906 860.269531 62.113281 860.109375 62.417969 C 859.949219 62.726562 859.867188 63.085938 859.867188 63.5 C 859.867188 64.21875 860.101562 64.792969 860.574219 65.226562 C 861.046875 65.65625 861.671875 65.871094 862.460938 65.871094 C 863.296875 65.871094 863.953125 65.644531 864.421875 65.191406 C 864.894531 64.738281 865.128906 64.113281 865.128906 63.320312 C 865.128906 62.777344 864.992188 62.316406 864.714844 61.941406 C 864.4375 61.5625 864.039062 61.289062 863.523438 61.117188 L 863.523438 63.929688 L 861.890625 63.929688 L 861.890625 59.109375 L 863.949219 59.109375 C 864.503906 59.273438 865.015625 59.550781 865.492188 59.945312 C 865.96875 60.339844 866.351562 60.835938 866.644531 61.441406 C 866.9375 62.046875 867.085938 62.730469 867.085938 63.488281 C 867.085938 64.386719 866.890625 65.1875 866.496094 65.890625 C 866.101562 66.597656 865.558594 67.144531 864.855469 67.539062 C 864.15625 67.929688 863.359375 68.128906 862.460938 68.128906 C 861.5625 68.128906 860.757812 67.929688 860.054688 67.539062 C 859.351562 67.144531 858.804688 66.597656 858.410156 65.898438 C 858.015625 65.199219 857.820312 64.398438 857.820312 63.5 C 857.820312 62.414062 858.082031 61.496094 858.609375 60.746094 C 859.136719 60 859.867188 59.503906 860.800781 59.265625 Z M 860.800781 61.714844 "/>
</g>
</svg>
